# Blender v2.80 (sub 74) OBJ File: ''
# Converted to RHS coordinate system from example
o cube
v 0.0 0.0 0.0
v 1.0 1.0 0.0
v 1.0 0.0 0.0
v 0.0 1.0 0.0
v 0.0 1.0 1.0
v 0.0 0.0 1.0
v 1.0 1.0 1.0
v 1.0 0.0 1.0

vn 0.0 0.0 -1.0
vn -1.0 0.0 0.0
vn 0.0 1.0 0.0
vn 1.0 0.0 0.0
vn 0.0 -1.0 0.0
vn 0.0 0.0 1.0

s 1
f 1//1 2//1 3//1
f 1//1 4//1 2//1
f 1//2 5//2 4//2
f 1//2 6//2 5//2
f 4//3 7//3 2//3
f 4//3 5//3 7//3
f 3//4 2//4 7//4
f 3//4 7//4 8//4
f 1//5 3//5 8//5
f 1//5 8//5 6//5
f 6//6 8//6 7//6
f 6//6 7//6 5//6
